<svg xmlns="http://www.w3.org/2000/svg" width="648.959" height="252.875" viewBox="0 0 648.959 252.875"><g transform="translate(10043 19839.875)"><path d="M-14.812,0,36.656-136.875H81.75L91.406,0H52.781l.188-20.156H30.375L24.375,0Zm53.25-47.812H53.719l.469-50.719ZM96.442,0l21.844-136.875h35.344l12.281,73.5,12.844-73.5h32.063L189.348,0H154.192L141.16-70.875,129.067,0ZM217.915-136.875h40.312l3.844,42,16.875-42h40.406L274.727-54.937,266.1,0H227.946l8.813-54.937ZM352.7-75.844h2.063q8.719,0,13.406-5.484t4.688-15.8q0-5.906-3-8.719t-9.281-2.812q-.375,0-1.266.094a14.45,14.45,0,0,1-1.453.094ZM302.357,0l21.75-136.875h32.25q30.375,0,41.859,7.969T409.7-101.719q0,16.781-7.266,27.563t-20.953,14.25L398.357,0h-40.5l-8.625-55.312L340.607,0Zm102.16,0,21.75-136.875h67.781l-5.25,33.188H459.267L456.361-86.25h26.719l-4.969,32.063H451.392L448.3-35.344h29.625L472.3,0Zm135.16-106.594L534.9-76.312a8.507,8.507,0,0,0,1.594.234q.844.047,2.063.047,8.156,0,12.234-4.875t4.078-14.719q0-5.437-3.375-8.2t-9.844-2.766ZM484.552,0,506.3-136.875h32.813q27.469,0,39.656,9.047t12.188,29.3q0,25.594-14.484,39.328T535.084-45.469q-.844,0-2.578-.094t-2.578-.094L522.8,0Z" transform="translate(-9985 -19703)" fill="#eb0f0f"/><text transform="translate(-9958 -19644)" fill="#fff" font-size="63" font-family="FuturaBT-ExtraBlackCondItalic, Futura XBlkCnIt BT" font-weight="900" font-style="italic" letter-spacing="-0.006em"><tspan x="0" y="0">Appliance Repairs</tspan></text><path d="M-.273,19.425l37.21-32.869.487,106.3L-.854,106.39Z" transform="matrix(0.94, 0.342, -0.342, 0.94, -9992.125, -19723.635)" fill="#eb0f0f"/><path d="M52,0S544.833-1.848,548,0s5.434,15.85,0,17S0,37,0,37L13.687,0Z" transform="translate(-10043 -19624)" fill="#eb0f0f"/></g></svg>